<?xml version="1.0" encoding="UTF-8"?>
<svg id="Layer_1" xmlns="http://www.w3.org/2000/svg" version="1.1" viewBox="0 0 352 25">
  <!-- Generator: Adobe Illustrator 29.3.0, SVG Export Plug-In . SVG Version: 2.1.0 Build 146)  -->
  <defs>
    <style>
      .st0, .st1 {
        fill: #fb37ff;
      }

      .st1 {
        fill-rule: evenodd;
      }
    </style>
  </defs>
  <g>
    <path class="st1" d="M0,0h2v18H0V0Z"/>
    <path class="st1" d="M-.5,18.5v-2h94v2H-.5ZM258,18v-2h94v2h-94Z"/>
    <path class="st1" d="M350,0h2v18h-2V0Z"/>
  </g>
  <g>
    <path class="st0" d="M112.8,23.5v-1.9h3.7v1.9h-3.7ZM112.9,12.8v-2l3.3-1.2v2l-3.3,1.1ZM116.2,23.5v-13.9h2v13.9h-2ZM118.1,23.5v-1.9h3.3v1.9h-3.3Z"/>
    <path class="st0" d="M124.8,23.5v-1.9h3.7v1.9h-3.7ZM125,12.8v-2l3.3-1.2v2l-3.3,1.1ZM128.3,23.5v-13.9h2v13.9h-2ZM130.1,23.5v-1.9h3.3v1.9h-3.3Z"/>
    <path class="st0" d="M146.6,23.6c-1.4,0-2.5-.4-3.2-1.2-.8-.8-1.1-1.9-1.1-3.3v-1.7c0-1.4.4-2.5,1.1-3.2.8-.8,1.8-1.1,3.2-1.1s1.5.1,2.1.4c.6.3,1.1.7,1.5,1.2l-1.4,1.3c-.3-.3-.6-.6-1-.8s-.8-.3-1.2-.3c-.8,0-1.4.2-1.8.6s-.6,1-.6,1.8v1.7c0,.8.2,1.4.6,1.9.4.4,1,.7,1.8.7s.8,0,1.2-.3c.4-.2.7-.5,1-.8l1.4,1.4c-.4.5-.9.9-1.5,1.2-.6.3-1.4.4-2.1.4Z"/>
    <path class="st0" d="M156,23.6c-1.2,0-2.2-.3-2.8-.8-.6-.5-.9-1.3-.9-2.4s.3-1.8.9-2.3,1.4-.7,2.6-.7h2.9v1.6c.1,0-2.9,0-2.9,0-.5,0-.9.1-1.2.3-.3.2-.4.6-.4,1.1s.2.9.5,1.1c.3.2.9.4,1.6.4s1.3,0,1.7-.2c.4-.2.6-.4.6-.8l.2,1.4c-.2.3-.4.5-.7.7s-.6.3-.9.4-.7.1-1.1.1ZM158.5,23.5v-6.4c0-.7-.2-1.2-.5-1.5-.4-.4-.9-.6-1.5-.6s-.8,0-1.2.2c-.4.1-.7.3-1,.5l-1.5-1c.4-.5.9-.8,1.5-1.1s1.3-.4,2.1-.4c1.3,0,2.3.3,2.9,1,.7.7,1,1.6,1,2.8v6.5h-1.9Z"/>
    <path class="st0" d="M163.8,23.5v-10.1h2v10.1h-2ZM169.3,15.8c-.2-.2-.4-.4-.7-.5-.3-.1-.6-.2-.9-.2-.6,0-1.1.2-1.5.5-.3.3-.5.8-.5,1.5l-.2-2c.3-.6.7-1.1,1.2-1.4.5-.3,1-.5,1.6-.5s.9,0,1.3.2.7.3,1,.6l-1.3,1.8Z"/>
    <path class="st0" d="M175.9,23.6c-1.2,0-2.2-.3-2.8-.8-.6-.5-.9-1.3-.9-2.4s.3-1.8.9-2.3,1.4-.7,2.6-.7h2.9v1.6c.1,0-2.9,0-2.9,0-.5,0-.9.1-1.2.3-.3.2-.4.6-.4,1.1s.2.9.5,1.1c.3.2.9.4,1.6.4s1.3,0,1.7-.2c.4-.2.6-.4.6-.8l.2,1.4c-.2.3-.4.5-.7.7-.3.2-.6.3-.9.4-.3,0-.7.1-1.1.1ZM178.4,23.5v-6.4c0-.7-.2-1.2-.5-1.5-.4-.4-.9-.6-1.5-.6s-.8,0-1.2.2c-.4.1-.7.3-1,.5l-1.5-1c.4-.5.9-.8,1.5-1.1s1.3-.4,2.1-.4c1.3,0,2.3.3,2.9,1,.7.7,1,1.6,1,2.8v6.5h-1.9Z"/>
    <path class="st0" d="M187.7,23.6c-1.4,0-2.5-.4-3.2-1.2-.8-.8-1.1-1.9-1.1-3.3v-1.7c0-1.4.4-2.5,1.1-3.2.8-.8,1.8-1.1,3.2-1.1s1.5.1,2.1.4c.6.3,1.1.7,1.5,1.2l-1.4,1.3c-.3-.3-.6-.6-1-.8-.4-.2-.8-.3-1.2-.3-.8,0-1.4.2-1.8.6-.4.4-.6,1-.6,1.8v1.7c0,.8.2,1.4.6,1.9.4.4,1,.7,1.8.7s.8,0,1.2-.3c.4-.2.7-.5,1-.8l1.4,1.4c-.4.5-.9.9-1.5,1.2-.6.3-1.4.4-2.1.4Z"/>
    <path class="st0" d="M193.1,15.2v-1.8h4.6v1.8h-4.6ZM196.6,23.5c-.8,0-1.4-.2-1.8-.7-.4-.5-.6-1.1-.6-2v-10.4h2v10.5c0,.2,0,.4.1.6s.2.2.4.2h1v1.9h-1.2Z"/>
    <path class="st0" d="M204.9,23.6c-1.4,0-2.5-.4-3.3-1.2-.8-.8-1.2-1.9-1.2-3.4v-1.1c0-1.5.4-2.7,1.1-3.5.7-.8,1.8-1.2,3.1-1.2s2.3.5,3,1.4,1,2.3,1,3.9v.7h-6.8v-1.6h4.9c0-.8-.3-1.5-.6-1.9-.4-.5-.9-.7-1.5-.7s-1.3.2-1.7.7c-.4.5-.6,1.2-.6,2.1v1.3c0,.8.2,1.5.7,1.9s1.1.7,1.9.7.8,0,1.2-.2c.4-.2.8-.4,1.1-.7l1.3,1.3c-.5.5-1.1.9-1.7,1.1s-1.3.4-1.9.4ZM204.4,11.4l-3-3.3,1.4-1.2,2.8,3.5-1.2,1Z"/>
    <path class="st0" d="M211.9,23.5v-10.1h2v10.1h-2ZM217.4,15.8c-.2-.2-.4-.4-.7-.5-.3-.1-.6-.2-.9-.2-.6,0-1.1.2-1.5.5-.3.3-.5.8-.5,1.5l-.2-2c.3-.6.7-1.1,1.2-1.4.5-.3,1-.5,1.6-.5s.9,0,1.3.2.7.3,1,.6l-1.3,1.8Z"/>
    <path class="st0" d="M224.7,23.6c-1.4,0-2.5-.4-3.3-1.2-.8-.8-1.2-1.9-1.2-3.4v-1.1c0-1.5.4-2.7,1.1-3.5.7-.8,1.8-1.2,3.1-1.2s2.3.5,3,1.4,1,2.3,1,3.9v.7h-6.8v-1.6h4.9c0-.8-.3-1.5-.6-1.9-.4-.5-.9-.7-1.5-.7s-1.3.2-1.7.7c-.4.5-.6,1.2-.6,2.1v1.3c0,.8.2,1.5.7,1.9s1.1.7,1.9.7.8,0,1.2-.2c.4-.2.8-.4,1.1-.7l1.3,1.3c-.5.5-1.1.9-1.7,1.1s-1.3.4-1.9.4Z"/>
    <path class="st0" d="M235.2,23.6c-.9,0-1.7-.1-2.4-.4s-1.4-.7-2-1.2l1.2-1.5c.6.4,1.1.7,1.6.9.5.2,1.1.3,1.6.3.8,0,1.4-.1,1.8-.4s.6-.6.6-1.1-.1-.6-.4-.8-.6-.3-1-.3-.9,0-1.4-.1c-.4,0-.8,0-1.2-.2s-.8-.2-1.1-.4c-.3-.2-.6-.4-.8-.8s-.3-.8-.3-1.4c0-1.1.3-1.9,1-2.4.7-.5,1.6-.8,2.9-.8s1.5.1,2.2.3,1.3.5,1.9,1l-1.2,1.5c-.5-.3-1-.6-1.5-.7-.5-.2-1-.2-1.4-.2-.7,0-1.2.1-1.5.3-.3.2-.5.6-.5,1s.1.5.4.7c.2.1.5.2.9.3s.8,0,1.2.1c.4,0,.9,0,1.3.1s.8.2,1.2.4.7.5.9.9c.2.4.3.9.3,1.6,0,1.1-.4,1.9-1.1,2.4-.7.5-1.8.8-3.2.8Z"/>
  </g>
</svg>